<?xml version="1.0" encoding="UTF-8"?>
<svg xmlns="http://www.w3.org/2000/svg" xmlns:xlink="http://www.w3.org/1999/xlink" viewBox="0 0 100 100" width="100px" height="100px">
<g id="surface117829769">
<path style=" stroke:none;fill-rule:nonzero;fill:rgb(100%,98.823529%,98.823529%);fill-opacity:1;" d="M 35.445312 20 C 21.121094 20 20 21.121094 20 35.445312 L 20 64.554688 C 20 78.878906 21.121094 80 35.445312 80 L 64.554688 80 C 78.878906 80 80 78.878906 80 64.554688 L 80 35.539062 C 80 21.128906 78.871094 20 64.460938 20 Z M 34 22 L 66 22 C 77.128906 22 78 22.871094 78 34 L 78 66 C 78 77.128906 77.128906 78 66 78 L 34 78 C 22.871094 78 22 77.128906 22 66 L 22 34 C 22 22.871094 22.871094 22 34 22 Z M 35.753906 29.757812 C 33.308594 29.757812 31.328125 31.734375 31.328125 34.175781 C 31.328125 36.617188 33.308594 38.601562 35.753906 38.601562 C 38.191406 38.601562 40.171875 36.617188 40.171875 34.175781 C 40.171875 31.738281 38.191406 29.757812 35.753906 29.757812 Z M 58.898438 41.484375 C 55.207031 41.484375 52.738281 43.511719 51.722656 45.429688 L 51.621094 45.429688 L 51.621094 42.09375 L 44.34375 42.09375 L 44.34375 66.5 L 51.925781 66.5 L 51.925781 54.425781 C 51.925781 51.242188 52.527344 48.15625 56.476562 48.15625 C 60.367188 48.15625 60.421875 51.796875 60.421875 54.628906 L 60.421875 66.5 L 68 66.5 L 68 53.113281 C 68 46.542969 66.578125 41.484375 58.898438 41.484375 Z M 31.957031 42.09375 L 31.957031 66.5 L 39.542969 66.5 L 39.542969 42.09375 Z M 31.957031 42.09375 "/>
</g>
</svg>
