<?xml version="1.0" encoding="UTF-8"?>
<svg xmlns="http://www.w3.org/2000/svg" xmlns:xlink="http://www.w3.org/1999/xlink" viewBox="0 0 100 100" width="100px" height="100px">
<g id="surface117782864">
<path style=" stroke:none;fill-rule:nonzero;fill:rgb(100%,100%,100%);fill-opacity:1;" d="M 35.445312 20 C 21.121094 20 20 21.121094 20 35.445312 L 20 64.554688 C 20 78.878906 21.121094 80 35.445312 80 L 64.554688 80 C 78.878906 80 80 78.878906 80 64.554688 L 80 35.539062 C 80 21.128906 78.871094 20 64.460938 20 Z M 34 22 L 66 22 C 77.128906 22 78 22.871094 78 34 L 78 66 C 78 77.128906 77.128906 78 66 78 L 59.425781 78 L 59.425781 58.710938 L 66.90625 58.710938 L 68.027344 49.789062 L 59.429688 49.789062 L 59.429688 43.542969 C 59.429688 41.070312 61.097656 39.800781 62.875 39.800781 C 64.652344 39.800781 68.328125 39.75 68.328125 39.75 L 68.328125 31.769531 C 68.328125 31.769531 65.058594 31.390625 61.714844 31.390625 C 58.90625 31.390625 55.816406 32.183594 53.339844 34.730469 C 50.820312 37.320312 50.457031 41.144531 50.457031 45.8125 L 50.457031 49.792969 L 42.957031 49.792969 L 42.957031 58.714844 L 50.457031 58.714844 L 50.457031 78 L 34 78 C 22.871094 78 22 77.128906 22 66 L 22 34 C 22 22.871094 22.871094 22 34 22 Z M 34 22 "/>
</g>
</svg>
